<?xml version="1.0" encoding="UTF-8"?>
<svg version="1.1" xmlns="http://www.w3.org/2000/svg" width="320" height="157">
<path d="M0 0 C105.6 0 211.2 0 320 0 C320 51.81 320 103.62 320 157 C214.4 157 108.8 157 0 157 C0 105.19 0 53.38 0 0 Z " fill="#FDFDFD" transform="translate(0,0)"/>
<path d="M0 0 C4.31511128 2.966639 7.48869777 6.50064423 9.75 11.203125 C9.95984775 14.05985236 10.03649823 16.67513722 9.9375 19.515625 C9.91719727 20.62647461 9.91719727 20.62647461 9.89648438 21.75976562 C9.86135979 23.57453575 9.80755972 25.38892788 9.75 27.203125 C10.966875 27.615625 12.18375 28.028125 13.4375 28.453125 C19.47626738 30.76425819 23.29493623 33.8109035 26.0234375 39.72265625 C27.8318447 45.89651953 27.57489352 52.53435185 25.6875 58.640625 C21.93846026 63.5990324 17.73730315 67.30555714 11.75 69.203125 C4.49857799 70.02616573 -2.65028904 70.4384196 -8.63671875 65.78515625 C-14.22315242 60.30693437 -15.45473371 55.71651221 -16.0625 47.953125 C-16.31841157 42.77821601 -16.31841157 42.77821601 -18.93359375 38.52734375 C-20.98672115 37.60402169 -20.98672115 37.60402169 -23.1484375 36.97265625 C-27.84084898 35.25443123 -30.51505466 30.70642228 -32.625 26.390625 C-33.97271125 19.51729765 -34.19521875 13.25183697 -30.65234375 7.0234375 C-23.1827857 -2.67242336 -10.8085713 -6.18877873 0 0 Z " fill="#8AC055" transform="translate(57.25,46.796875)"/>
<path d="M0 0 C3.856875 -0.061875 7.71375 -0.12375 11.6875 -0.1875 C13.4986731 -0.22846802 13.4986731 -0.22846802 15.34643555 -0.27026367 C16.308479 -0.27775635 17.27052246 -0.28524902 18.26171875 -0.29296875 C19.24100342 -0.3086792 20.22028809 -0.32438965 21.22924805 -0.34057617 C25.25218178 0.15391608 27.8390289 1.95912936 30.8125 4.625 C32.67413131 8.34826261 32.54958506 11.92038782 32 16 C30.5 19.5625 30.5 19.5625 29 22 C29.433125 22.42410156 29.86625 22.84820312 30.3125 23.28515625 C33.24097872 26.36954935 34.86242457 28.22957758 35.625 32.5 C34.89819713 36.57009605 33.95155079 40.01146236 31 43 C24.7156055 46.69720491 18.69746819 46.35136114 11.5625 46.1875 C5.8390625 46.0946875 5.8390625 46.0946875 0 46 C0 30.82 0 15.64 0 0 Z " fill="#090909" transform="translate(94,45)"/>
<path d="M0 0 C22 0 22 0 28 3 C31.86467409 6.86467409 32.31984378 10.22742789 32.5 15.5 C32.31322031 20.79610812 31.87847692 24.12152308 28 28 C21.85932267 32.86136955 16.69404235 32.34579966 9 32 C9 36.62 9 41.24 9 46 C6.03 46 3.06 46 0 46 C0 30.82 0 15.64 0 0 Z " fill="#8AC056" transform="translate(260,45)"/>
<path d="M0 0 C10.23 0 20.46 0 31 0 C31 2.97 31 5.94 31 9 C23.74 9 16.48 9 9 9 C9 11.97 9 14.94 9 18 C15.27 18 21.54 18 28 18 C28 20.97 28 23.94 28 27 C21.73 27 15.46 27 9 27 C9 30.3 9 33.6 9 37 C16.26 37 23.52 37 31 37 C31 39.97 31 42.94 31 46 C20.77 46 10.54 46 0 46 C0 30.82 0 15.64 0 0 Z " fill="#060606" transform="translate(135,45)"/>
<path d="M0 0 C2.97 0 5.94 0 9 0 C9.33 6.27 9.66 12.54 10 19 C11.175625 17.535625 12.35125 16.07125 13.5625 14.5625 C14.29984375 13.65886719 15.0371875 12.75523438 15.796875 11.82421875 C18.00325447 9.0872469 18.00325447 9.0872469 19.703125 6.33203125 C21.33212163 3.84504368 22.70079471 1.89214754 25 0 C28.78518225 -0.73344317 32.19968574 -0.55664639 36 0 C32.91077547 5.10393618 29.09964971 9.28575562 25.0234375 13.6328125 C23.22123361 15.7411823 22.16878362 17.52196966 21 20 C21.4846875 20.71655762 21.969375 21.43311523 22.46875 22.17138672 C24.2615047 24.82647366 26.05011422 27.48429001 27.8359375 30.14404297 C28.61032184 31.29554988 29.38635802 32.44594769 30.1640625 33.59521484 C31.28036178 35.2454583 32.39027855 36.90001355 33.5 38.5546875 C34.1703125 39.54968262 34.840625 40.54467773 35.53125 41.56982422 C37 44 37 44 37 46 C33.49287305 46.63509341 30.4865067 46.82575159 27 46 C23.93861139 43.09051235 22.046613 39.66728116 20 36 C19.02716587 34.45432952 18.04871238 32.91216902 17.0625 31.375 C16.381875 30.26125 15.70125 29.1475 15 28 C12.3094472 29.22007944 12.3094472 29.22007944 10 31 C9.76346477 33.52596259 9.57826308 36.03107207 9.4375 38.5625 C9.39431641 39.27341797 9.35113281 39.98433594 9.30664062 40.71679688 C9.20028223 42.47761912 9.09961154 44.2387832 9 46 C6.03 46 3.06 46 0 46 C0 30.82 0 15.64 0 0 Z " fill="#080808" transform="translate(171,45)"/>
<path d="M0 0 C2.97 0 5.94 0 9 0 C9.01458252 0.88260498 9.02916504 1.76520996 9.04418945 2.67456055 C9.10542067 5.96438643 9.1796033 9.2533993 9.26245117 12.54272461 C9.29560557 13.96351202 9.32366692 15.38442813 9.34643555 16.80541992 C9.38015847 18.8539082 9.43247745 20.9012272 9.48828125 22.94921875 C9.51446533 24.17987061 9.54064941 25.41052246 9.56762695 26.6784668 C10.02959973 30.22738812 10.86544547 32.1568715 13 35 C16.01868434 36.50934217 18.67297229 36.17510672 22 36 C25.24849977 34.27773504 25.24849977 34.27773504 26 31 C26.15179014 28.6444552 26.24899289 26.28524877 26.31640625 23.92578125 C26.33718735 23.2419487 26.35796844 22.55811615 26.37937927 21.8535614 C26.44466154 19.6733079 26.50366017 17.49293595 26.5625 15.3125 C26.60570553 13.83267014 26.64932047 12.35285217 26.69335938 10.87304688 C26.80032083 7.24882378 26.90164823 3.62446811 27 0 C29.97 0 32.94 0 36 0 C36.07457894 4.57149757 36.12880276 9.14263509 36.16479492 13.71459961 C36.17981105 15.2673968 36.20023028 16.82015209 36.22631836 18.37280273 C36.26302073 20.61452624 36.27979787 22.85568539 36.29296875 25.09765625 C36.30845261 25.78336197 36.32393646 26.46906769 36.33988953 27.17555237 C36.34179179 32.71761161 35.18193778 37.46577018 31.5 41.7421875 C24.95301026 46.68652871 19.00733271 46.6902873 11 46 C4.78246015 43.27300884 2.91276799 38.82553597 0 33 C-0.08649451 30.51900266 -0.11565054 28.06655072 -0.09765625 25.5859375 C-0.0962413 24.85629791 -0.09482635 24.12665833 -0.09336853 23.37490845 C-0.08776531 21.04156415 -0.07521235 18.70831536 -0.0625 16.375 C-0.05748541 14.79427222 -0.05292243 13.21354293 -0.04882812 11.6328125 C-0.03779484 7.75517146 -0.02052811 3.87760193 0 0 Z " fill="#8BC056" transform="translate(212,45)"/>
<path d="M0 0 C2.9549485 1.83168514 5.41832955 3.8366591 7 7 C7.34956927 13.17572382 7.34956927 13.17572382 5.99609375 16.3671875 C4.86172461 19.36548083 4.7980923 21.62083051 4.875 24.8125 C4.89304687 25.78832031 4.91109375 26.76414062 4.9296875 27.76953125 C4.95289062 28.50558594 4.97609375 29.24164063 5 30 C5.99 29.67 6.98 29.34 8 29 C12.5546971 28.47970689 15.93672548 28.36655986 19.9375 30.75 C23.56524823 34.70754352 24.47681363 37.4578799 24.3125 42.97265625 C23.78010527 46.42656706 22.28137423 48.41844495 20 51 C15.65109044 53.89927304 12.18710123 54.74101446 7 54 C2.17653868 50.90570406 0.41771557 48.46341172 -1 43 C-1.22705078 39.65673828 -1.22705078 39.65673828 -1.1953125 36.0703125 C-1.18886719 34.78125 -1.18242188 33.4921875 -1.17578125 32.1640625 C-1.15907463 30.81770558 -1.14214479 29.47135141 -1.125 28.125 C-1.11495664 26.75521483 -1.10583317 25.38542258 -1.09765625 24.015625 C-1.07414412 20.67690244 -1.0412793 17.33854239 -1 14 C-0.01 13.67 0.98 13.34 2 13 C-0.31 11.02 -2.62 9.04 -5 7 C-8.56311466 8.78155733 -10.35645475 10.16763009 -13 13 C-12.01 13.33 -11.02 13.66 -10 14 C-10 16.97 -10 19.94 -10 23 C-14.48247668 20.75876166 -16.42301467 19.73095598 -18 15 C-18.39177998 10.84713223 -18.25515206 8.51030413 -16.375 4.75 C-11.75886738 -0.59499566 -6.81576264 -2.2628874 0 0 Z " fill="#FAFCF9" transform="translate(51,54)"/>
<path d="M0 0 C10.47866595 -0.36983527 10.47866595 -0.36983527 12.828125 1.296875 C14.81834173 4.18932331 14.41568583 6.6151297 14 10 C12.625 12.4375 12.625 12.4375 10 14 C6.59264014 14.32578206 3.43853858 14.18097571 0 14 C0 9.38 0 4.76 0 0 Z " fill="#FDFEFC" transform="translate(269,54)"/>
<path d="M0 0 C2.27024968 -0.08097324 4.54132075 -0.13917704 6.8125 -0.1875 C8.07707031 -0.22230469 9.34164062 -0.25710937 10.64453125 -0.29296875 C14 0 14 0 15.9609375 1.3515625 C17 3 17 3 16.8125 5.5625 C16 8 16 8 14 10 C10.7421875 10.1953125 10.7421875 10.1953125 6.875 10.125 C4.95300781 10.09792969 4.95300781 10.09792969 2.9921875 10.0703125 C1.51105469 10.03550781 1.51105469 10.03550781 0 10 C0 6.7 0 3.4 0 0 Z " fill="#F9F9F9" transform="translate(103,72)"/>
<path d="M0 0 C0.66 0.33 1.32 0.66 2 1 C3.7325 0.7215625 3.7325 0.7215625 5.5 0.4375 C6.655 0.293125 7.81 0.14875 9 0 C11 2 11 2 11.1953125 4.1640625 C11.17210937 4.97617188 11.14890625 5.78828125 11.125 6.625 C11.10695312 7.44226563 11.08890625 8.25953125 11.0703125 9.1015625 C11.04710937 9.72804688 11.02390625 10.35453125 11 11 C10.34 11 9.68 11 9 11 C9 9.68 9 8.36 9 7 C7.68 7 6.36 7 5 7 C5 8.32 5 9.64 5 11 C3.35 11.33 1.7 11.66 0 12 C-1.32 10.35 -2.64 8.7 -4 7 C-4.66 8.32 -5.32 9.64 -6 11 C-6 7.7 -6 4.4 -6 1 C-5.67 2.32 -5.34 3.64 -5 5 C-4.34 5 -3.68 5 -3 5 C-2.5359375 4.0409375 -2.5359375 4.0409375 -2.0625 3.0625 C-1 1 -1 1 0 0 Z " fill="#A1A1A1" transform="translate(161,105)"/>
<path d="M0 0 C2.12438339 -0.08078641 4.2496323 -0.13909141 6.375 -0.1875 C7.55835937 -0.22230469 8.74171875 -0.25710937 9.9609375 -0.29296875 C11.46527344 -0.14794922 11.46527344 -0.14794922 13 0 C15 3 15 3 14.75 5.0625 C14 7 14 7 12 9 C9.1796875 9.1953125 9.1796875 9.1953125 5.875 9.125 C4.77929688 9.10695313 3.68359375 9.08890625 2.5546875 9.0703125 C1.71164063 9.04710937 0.86859375 9.02390625 0 9 C0 6.03 0 3.06 0 0 Z " fill="#FAFAFA" transform="translate(103,54)"/>
<path d="M0 0 C2.375 0.8125 2.375 0.8125 3.375 2.8125 C3.82612782 8.11325188 3.82612782 8.11325188 2.125 10.75 C0.375 11.8125 0.375 11.8125 -1.6875 11.6875 C-3.625 10.8125 -3.625 10.8125 -5.625 7.8125 C-5.98645422 4.92086622 -6.00940503 3.4194553 -4.4375 0.9375 C-2.625 -0.1875 -2.625 -0.1875 0 0 Z " fill="#9E9E9E" transform="translate(210.625,105.1875)"/>
<path d="M0 0 C5 0 5 0 6.875 1.0625 C8.66310335 4.14201133 7.74592606 6.64333273 7 10 C6 11 6 11 2.9375 11.0625 C1.968125 11.041875 0.99875 11.02125 0 11 C0 7.37 0 3.74 0 0 Z " fill="#5B5B5B" transform="translate(112,105)"/>
<path d="M0 0 C2.0625 0.1875 2.0625 0.1875 4 1 C5.08073852 4.24221555 5.21676408 6.60402937 5 10 C4.34 10.66 3.68 11.32 3 12 C0.875 11.625 0.875 11.625 -1 11 C-1.91026797 7.92784561 -2.25288404 5.20319784 -2 2 C-1.34 1.34 -0.68 0.68 0 0 Z " fill="#7B7B7B" transform="translate(233,105)"/>
<path d="M0 0 C1.98 0 3.96 0 6 0 C5.979375 0.763125 5.95875 1.52625 5.9375 2.3125 C5.87057159 5.10185786 5.87057159 5.10185786 7 8 C6.67 8.66 6.34 9.32 6 10 C4.02 10 2.04 10 0 10 C0 6.7 0 3.4 0 0 Z " fill="#7C7C7C" transform="translate(94,106)"/>
<path d="M0 0 C1.65 0 3.3 0 5 0 C7 2 7 2 7.1953125 4.3828125 C7.17210937 5.28773437 7.14890625 6.19265625 7.125 7.125 C7.10695312 8.03507812 7.08890625 8.94515625 7.0703125 9.8828125 C7.04710937 10.58148438 7.02390625 11.28015625 7 12 C6.34 11.67 5.68 11.34 5 11 C5 9.68 5 8.36 5 7 C3.68 7 2.36 7 1 7 C0.67 8.32 0.34 9.64 0 11 C0 7.37 0 3.74 0 0 Z " fill="#747474" transform="translate(217,105)"/>
<path d="M0 0 C1.65 0 3.3 0 5 0 C7 2 7 2 7.1953125 4.1640625 C7.17210937 4.97617188 7.14890625 5.78828125 7.125 6.625 C7.10695312 7.44226563 7.08890625 8.25953125 7.0703125 9.1015625 C7.03550781 10.04128906 7.03550781 10.04128906 7 11 C6.34 11 5.68 11 5 11 C5 9.68 5 8.36 5 7 C3.68 7 2.36 7 1 7 C0.67 8.32 0.34 9.64 0 11 C0 7.37 0 3.74 0 0 Z " fill="#727272" transform="translate(165,105)"/>
<path d="M0 0 C1.98 0 3.96 0 6 0 C6.625 1.875 6.625 1.875 7 4 C6.34 4.66 5.68 5.32 5 6 C3.68 6 2.36 6 1 6 C0.67 7.32 0.34 8.64 0 10 C0 6.7 0 3.4 0 0 Z " fill="#6D6D6D" transform="translate(286,106)"/>
<path d="M0 0 C2.31 0 4.62 0 7 0 C7 0.66 7 1.32 7 2 C5.35 2 3.7 2 2 2 C2 2.99 2 3.98 2 5 C3.32 5 4.64 5 6 5 C6 5.66 6 6.32 6 7 C4.68 7 3.36 7 2 7 C2 8.32 2 9.64 2 11 C1.34 11 0.68 11 0 11 C0 7.37 0 3.74 0 0 Z " fill="#6C6C6C" transform="translate(197,105)"/>
<path d="M0 0 C0.66 0 1.32 0 2 0 C2.99 3.3 3.98 6.6 5 10 C4.34 10 3.68 10 3 10 C3 9.01 3 8.02 3 7 C1.68 7 0.36 7 -1 7 C-1 7.99 -1 8.98 -1 10 C-1.66 10 -2.32 10 -3 10 C-2.01 6.7 -1.02 3.4 0 0 Z " fill="#2F2F2F" transform="translate(250,106)"/>
<path d="M0 0 C0.66 0 1.32 0 2 0 C2.52992692 1.45505358 3.0486789 2.91418127 3.5625 4.375 C3.85253906 5.18710938 4.14257812 5.99921875 4.44140625 6.8359375 C5 9 5 9 4 11 C3.67 9.68 3.34 8.36 3 7 C1.68 7 0.36 7 -1 7 C-1 7.99 -1 8.98 -1 10 C-1.66 9.67 -2.32 9.34 -3 9 C-2.01 6.03 -1.02 3.06 0 0 Z " fill="#535353" transform="translate(124,106)"/>
<path d="M0 0 C0.66 0 1.32 0 2 0 C2.99 3.3 3.98 6.6 5 10 C4.34 10 3.68 10 3 10 C3 9.01 3 8.02 3 7 C1.68 7 0.36 7 -1 7 C-1.33 7.99 -1.66 8.98 -2 10 C-3 8 -3 8 -2.44140625 6.0546875 C-2.15136719 5.33539063 -1.86132812 4.61609375 -1.5625 3.875 C-1.27503906 3.15054688 -0.98757812 2.42609375 -0.69140625 1.6796875 C-0.46324219 1.12539062 -0.23507813 0.57109375 0 0 Z " fill="#4D4D4D" transform="translate(177,106)"/>
<path d="M0 0 C2.64 0 5.28 0 8 0 C8 0.66 8 1.32 8 2 C7.01 2 6.02 2 5 2 C5 4.97 5 7.94 5 11 C4.34 11 3.68 11 3 11 C3 8.03 3 5.06 3 2 C2.01 2 1.02 2 0 2 C0 1.34 0 0.68 0 0 Z " fill="#747474" transform="translate(266,105)"/>
<path d="M0 0 C0.99 0.33 1.98 0.66 3 1 C3.33 3.64 3.66 6.28 4 9 C3.67 8.34 3.34 7.68 3 7 C1.68 7 0.36 7 -1 7 C-1 7.99 -1 8.98 -1 10 C-1.66 9.67 -2.32 9.34 -3 9 C-2.01 6.03 -1.02 3.06 0 0 Z " fill="#535353" transform="translate(105,106)"/>
<path d="M0 0 C0.66 0 1.32 0 2 0 C2 3.3 2 6.6 2 10 C1.67 8.68 1.34 7.36 1 6 C-0.32 6 -1.64 6 -3 6 C-3 7.32 -3 8.64 -3 10 C-3.66 10 -4.32 10 -5 10 C-5 8.02 -5 6.04 -5 4 C-3.02 4 -1.04 4 1 4 C0.67 2.68 0.34 1.36 0 0 Z " fill="#474747" transform="translate(262,106)"/>
<path d="M0 0 C1.32 0 2.64 0 4 0 C4 2.31 4 4.62 4 7 C2.68 7.33 1.36 7.66 0 8 C0 5.36 0 2.72 0 0 Z " fill="#FBFBFB" transform="translate(114,107)"/>
<path d="M0 0 C1.98 0 3.96 0 6 0 C6 1.65 6 3.3 6 5 C4.02 5 2.04 5 0 5 C0 3.35 0 1.7 0 0 Z " fill="#AFAFAF" transform="translate(257,105)"/>
<path d="M0 0 C2.475 0.99 2.475 0.99 5 2 C4.67 3.32 4.34 4.64 4 6 C2.68 5.67 1.36 5.34 0 5 C-0.5625 3.0625 -0.5625 3.0625 -1 1 C-0.67 0.67 -0.34 0.34 0 0 Z " fill="#ACACAC" transform="translate(232,111)"/>
<path d="M0 0 C0.66 0 1.32 0 2 0 C3 3 3 3 2 6 C0.68 5.67 -0.64 5.34 -2 5 C-1.34 3.35 -0.68 1.7 0 0 Z " fill="#7A7A7A" transform="translate(250,106)"/>
</svg>
