<svg version="1.1" id="Layer_1" xmlns="http://www.w3.org/2000/svg" xmlns:xlink="http://www.w3.org/1999/xlink" x="0px" y="0px"
	 width="100%" viewBox="0 0 100 100" enable-background="new 0 0 100 100" xml:space="preserve">
<path fill="#FEFEFE" opacity="1.000000" stroke="none" 
	d="
M53.000000,101.000000 
	C35.333336,101.000000 18.166674,101.000000 1.000007,101.000000 
	C1.000005,67.666679 1.000005,34.333351 1.000002,1.000020 
	C34.333317,1.000014 67.666634,1.000014 100.999969,1.000007 
	C100.999977,34.333313 100.999977,67.666626 100.999985,100.999969 
	C85.166664,101.000000 69.333336,101.000000 53.000000,101.000000 
M34.425613,50.499805 
	C37.589893,48.671181 40.785561,46.894287 43.909416,44.999039 
	C46.888165,43.191818 48.030003,40.540760 46.296478,37.387917 
	C44.544628,34.201748 41.550125,33.739765 38.573761,35.406132 
	C33.221672,38.402588 28.036791,41.697708 22.098274,45.039524 
	C15.232598,48.908581 15.047977,53.047092 21.646616,56.968960 
	C26.922728,60.104790 32.291691,63.084003 37.586727,66.188522 
	C40.881859,68.120483 44.081459,68.431969 46.202938,64.820419 
	C48.315815,61.223503 46.594852,58.583530 43.210678,56.664089 
	C40.057392,54.875595 37.016354,52.889202 34.425613,50.499805 
M67.456520,51.211086 
	C64.224648,53.207344 60.553406,54.760113 57.924282,57.364784 
	C56.325500,58.948700 55.301041,62.497520 55.968674,64.519943 
	C56.451748,65.983284 60.788990,67.743416 62.283710,67.026917 
	C68.160828,64.209709 73.593071,60.464443 79.888741,56.909199 
	C85.846634,54.115475 87.078545,49.158810 82.339516,46.193775 
	C76.292450,42.410347 70.032974,38.957508 63.782337,35.512253 
	C60.831139,33.885597 57.903633,34.031902 56.003902,37.235821 
	C53.943119,40.711361 55.468124,43.237080 58.583321,45.119152 
	C61.708324,47.007149 64.849266,48.868774 67.456520,51.211086 
z"/>
<path fill="#1E9C5C" opacity="1.000000" stroke="none" 
	d="
M67.983223,50.741959 
	C64.849266,48.868774 61.708324,47.007149 58.583321,45.119152 
	C55.468124,43.237080 53.943119,40.711361 56.003902,37.235821 
	C57.903633,34.031902 60.831139,33.885597 63.782337,35.512253 
	C70.032974,38.957508 76.292450,42.410347 82.339516,46.193775 
	C87.078545,49.158810 85.846634,54.115475 79.285904,56.738503 
	C75.116455,54.625858 71.549843,52.683910 67.983223,50.741959 
z"/>
<path fill="#4E86EB" opacity="1.000000" stroke="none" 
	d="
M33.925907,50.989925 
	C37.016354,52.889202 40.057392,54.875595 43.210678,56.664089 
	C46.594852,58.583530 48.315815,61.223503 46.202938,64.820419 
	C44.081459,68.431969 40.881859,68.120483 37.586727,66.188522 
	C32.291691,63.084003 26.922728,60.104790 21.646616,56.968960 
	C15.047977,53.047092 15.232598,48.908581 22.757980,45.123375 
	C26.920427,47.134792 30.423166,49.062359 33.925907,50.989925 
z"/>
<path fill="#F3BF1A" opacity="1.000000" stroke="none" 
	d="
M67.719872,50.976524 
	C71.549843,52.683910 75.116455,54.625858 78.936783,56.815765 
	C73.593071,60.464443 68.160828,64.209709 62.283710,67.026917 
	C60.788990,67.743416 56.451748,65.983284 55.968674,64.519943 
	C55.301041,62.497520 56.325500,58.948700 57.924282,57.364784 
	C60.553406,54.760113 64.224648,53.207344 67.719872,50.976524 
z"/>
<path fill="#E04C42" opacity="1.000000" stroke="none" 
	d="
M34.175758,50.744865 
	C30.423166,49.062359 26.920427,47.134792 23.099869,45.037636 
	C28.036791,41.697708 33.221672,38.402588 38.573761,35.406132 
	C41.550125,33.739765 44.544628,34.201748 46.296478,37.387917 
	C48.030003,40.540760 46.888165,43.191818 43.909416,44.999039 
	C40.785561,46.894287 37.589893,48.671181 34.175758,50.744865 
z"/>
</svg>