<svg xmlns="http://www.w3.org/2000/svg" width="1024" height="1024" viewBox="0 0 1024 1024">
<g>
<path d="M 544.19 928.47 C433.76,937.72 321.72,901.00 237.50,827.95 C223.91,816.16 198.75,790.14 186.07,774.75 C127.30,703.44 94.20,617.66 88.96,523.11 C84.39,440.72 108.49,353.31 155.67,281.13 C189.47,229.40 236.04,183.48 286.05,152.52 C328.52,126.24 376.14,107.44 426.92,96.90 C455.14,91.04 467.88,89.77 503.50,89.26 C538.97,88.76 550.55,89.38 576.00,93.14 C641.76,102.88 707.09,129.81 762.50,170.02 C807.78,202.89 849.31,247.83 877.06,294.00 C899.59,331.47 918.02,377.47 927.34,419.50 C938.71,470.74 939.90,521.00 930.96,572.47 C925.17,605.83 913.79,643.08 899.16,676.58 C866.32,751.76 805.46,821.67 733.85,866.48 C714.70,878.46 678.83,896.42 661.40,902.75 C621.07,917.41 587.08,924.87 544.19,928.47 ZM 670.29 331.66 L 678.08 337.00 L 723.79 336.95 C763.44,336.90 769.23,336.71 767.50,335.48 C766.40,334.71 742.72,317.07 714.87,296.29 C687.03,275.50 657.55,253.57 649.37,247.54 C641.19,241.51 629.55,232.91 623.50,228.43 C617.45,223.95 600.80,211.75 586.50,201.32 C572.20,190.89 549.92,174.53 537.00,164.97 C516.24,149.60 513.10,147.60 510.05,147.80 C508.15,147.93 505.45,148.78 504.05,149.69 C499.88,152.41 433.65,201.11 376.50,243.49 C346.02,266.09 254.38,334.41 253.55,335.15 C253.03,335.62 273.28,335.99 298.55,335.97 L 344.50 335.94 L 356.00 327.39 C362.33,322.68 375.15,313.25 384.50,306.43 C393.85,299.61 409.60,288.09 419.50,280.83 C429.40,273.57 441.84,264.45 447.14,260.57 C452.45,256.68 467.21,245.85 479.96,236.50 C507.14,216.56 508.16,215.87 509.61,216.41 C510.22,216.64 526.20,227.96 545.11,241.57 C564.02,255.17 587.07,271.75 596.33,278.40 C605.59,285.06 624.26,298.56 637.83,308.41 C651.40,318.26 666.00,328.72 670.29,331.66 ZM 513.65 540.89 C518.96,542.14 523.44,541.35 530.68,537.89 C537.76,534.52 550.20,523.41 556.54,514.82 L 560.74 509.14 L 561.24 515.46 C562.29,528.54 569.31,537.62 579.23,538.71 C588.58,539.74 600.48,532.26 609.50,519.68 C611.70,516.61 613.72,514.07 614.00,514.05 C614.28,514.02 614.35,516.66 614.17,519.91 C613.02,540.18 630.85,544.48 650.24,528.60 C657.61,522.57 666.92,511.50 670.89,504.06 C676.66,493.23 674.02,491.68 666.28,501.33 C657.36,512.47 644.39,522.00 638.16,522.00 C636.27,522.00 634.15,521.15 632.88,519.88 C631.04,518.04 630.84,517.02 631.39,512.37 C632.14,505.98 637.61,491.91 647.09,471.96 C650.89,463.96 654.00,456.71 654.00,455.85 C654.00,454.98 653.07,453.08 651.93,451.63 C647.97,446.60 638.75,449.08 635.66,456.01 C635.13,457.22 634.88,457.24 634.38,456.15 C632.81,452.71 627.46,447.92 624.05,446.90 C621.98,446.28 616.94,445.94 612.85,446.14 C606.95,446.44 604.04,447.20 598.72,449.82 C587.20,455.49 575.94,468.18 567.51,485.00 C560.89,498.22 542.43,517.71 532.29,522.20 C528.48,523.88 527.74,523.92 524.61,522.61 C520.60,520.94 519.01,516.89 519.01,508.32 C519.00,502.47 521.27,490.65 523.35,485.75 C524.10,483.96 532.60,474.62 542.23,465.00 C566.47,440.76 579.59,422.47 586.07,403.84 C592.82,384.46 587.82,371.02 573.88,371.00 C560.40,370.99 548.67,380.84 535.74,403.00 C524.98,421.45 510.90,456.88 504.06,482.70 C502.53,488.48 493.05,500.89 482.70,510.67 C468.41,524.15 459.74,526.82 455.75,518.95 C453.34,514.20 453.57,507.27 456.51,495.72 C457.88,490.34 459.00,485.78 459.00,485.57 C459.00,485.37 463.61,480.53 469.25,474.82 C501.29,442.38 522.22,408.38 523.76,386.27 C524.34,377.85 523.16,374.15 518.65,370.36 C515.84,368.00 514.98,367.81 509.20,368.27 C503.96,368.69 501.88,369.44 497.46,372.48 C486.64,379.93 478.05,391.77 466.96,414.50 C458.40,432.03 451.68,448.88 443.02,474.56 C439.29,485.59 435.54,495.99 434.67,497.67 C432.15,502.54 422.26,514.17 417.24,518.17 C408.63,525.02 404.42,523.74 404.63,514.33 C404.73,509.70 406.56,503.56 413.51,484.50 C423.81,456.24 424.31,453.71 420.52,449.20 C418.36,446.64 417.07,446.00 414.05,446.00 C406.66,446.00 404.45,449.50 394.44,477.00 C377.86,522.52 379.19,540.00 399.22,540.00 C409.38,540.00 422.25,531.55 430.60,519.41 L 434.50 513.74 L 435.09 519.75 C436.37,532.89 443.01,539.95 454.10,539.98 C460.91,540.00 464.83,538.74 471.93,534.24 C478.34,530.17 491.21,517.42 495.62,510.76 L 498.74 506.05 L 499.20 516.35 C499.89,531.82 503.88,538.60 513.65,540.89 ZM 348.42 730.64 C353.58,733.00 363.60,731.86 370.59,728.14 C377.35,724.53 387.55,715.78 392.41,709.41 L 395.73 705.07 L 396.26 710.91 C397.75,727.42 409.73,734.35 424.33,727.16 C430.34,724.20 440.39,714.98 445.59,707.66 L 447.61 704.82 L 447.20 711.27 C445.56,737.02 471.98,735.90 494.37,709.26 C500.43,702.05 506.00,692.40 506.00,689.11 C506.00,685.69 503.32,686.68 500.16,691.26 C493.05,701.60 477.12,714.00 470.95,714.00 C460.55,714.00 462.47,703.20 479.13,667.96 C482.91,659.96 486.00,652.26 486.00,650.85 C486.00,649.43 485.03,647.03 483.84,645.52 C481.94,643.11 481.18,642.84 477.59,643.32 C474.48,643.73 472.72,644.75 470.25,647.60 C468.18,649.98 467.00,650.76 467.00,649.74 C467.00,646.98 462.11,642.21 457.47,640.44 C454.20,639.19 451.17,638.86 446.10,639.22 C427.59,640.55 411.84,655.40 399.69,683.00 C389.55,706.03 362.98,723.90 363.00,707.68 C363.01,702.65 369.63,685.00 384.25,651.00 C402.27,609.11 405.24,600.67 405.38,590.83 C405.52,582.09 403.92,578.86 397.93,575.69 C392.17,572.65 380.88,573.77 371.75,578.28 C367.73,580.26 361.53,584.10 357.97,586.81 C343.98,597.45 327.38,617.16 315.99,636.65 C313.79,640.40 312.00,643.23 312.00,642.93 C312.00,642.63 314.99,634.32 318.64,624.45 C324.44,608.76 325.34,605.41 325.76,597.81 C326.17,590.34 325.94,588.50 324.08,584.67 C321.77,579.89 316.44,575.56 310.92,573.98 C305.75,572.49 290.85,572.81 282.21,574.58 C256.49,579.87 234.23,597.66 226.00,619.50 C222.68,628.34 222.62,641.71 225.87,648.32 C230.08,656.86 239.86,661.26 245.25,657.02 C248.69,654.31 248.76,651.22 245.50,646.40 C242.42,641.87 242.25,636.58 244.91,628.06 C251.59,606.59 274.28,586.18 292.04,585.68 C297.39,585.52 298.41,585.80 300.08,587.86 C304.10,592.81 302.01,603.55 290.71,636.00 C283.29,657.32 269.57,692.32 262.12,708.93 C259.31,715.22 257.00,720.94 257.00,721.64 C257.00,728.58 268.43,733.42 275.80,729.60 C280.06,727.40 281.39,725.34 287.45,711.50 C294.95,694.38 308.06,669.04 316.07,656.16 C339.29,618.85 372.79,585.37 379.86,592.43 C382.05,594.62 378.68,604.22 362.31,642.50 C345.69,681.34 341.43,693.46 339.85,706.36 C338.21,719.68 340.86,727.20 348.42,730.64 ZM 713.50 796.00 C726.14,799.95 745.75,788.38 760.76,768.10 C766.58,760.24 777.66,740.79 780.38,733.68 C781.76,730.05 782.87,728.99 787.75,726.60 C796.62,722.27 804.94,715.91 813.15,707.18 C821.10,698.73 826.77,689.46 825.70,686.67 C824.62,683.85 822.57,684.79 818.67,689.91 C812.68,697.76 801.01,708.22 794.24,711.81 C790.81,713.63 788.00,714.90 788.00,714.65 C788.00,714.39 793.17,700.56 799.50,683.91 C805.83,667.27 811.00,652.16 811.00,650.33 C811.00,646.62 808.40,643.39 804.66,642.45 C801.95,641.77 795.29,643.32 792.73,645.23 C791.79,645.93 788.09,653.03 784.49,661.00 C774.17,683.93 765.87,697.13 755.84,706.60 C747.30,714.67 742.91,716.09 740.80,711.45 C739.29,708.14 741.30,701.83 752.66,674.24 C753.75,671.61 754.73,669.21 755.63,667.04 C763.34,648.36 764.49,645.57 763.59,643.87 C763.32,643.37 762.88,642.97 762.38,642.29 C759.68,638.66 753.93,638.07 749.27,640.95 C745.58,643.23 740.30,653.22 729.96,677.50 L 723.57 692.50 L 714.03 702.06 C703.32,712.81 696.06,717.11 687.63,717.73 C678.50,718.41 673.00,712.53 673.00,702.13 L 673.00 697.06 L 678.75 695.42 C693.37,691.25 709.22,681.04 715.67,671.63 C719.91,665.46 722.34,657.33 721.42,652.44 C720.54,647.73 715.90,642.45 711.30,640.94 C705.69,639.08 696.77,640.35 689.14,644.08 C668.41,654.22 648.86,688.20 651.47,709.54 C652.28,716.09 657.04,724.36 661.77,727.39 C675.92,736.49 695.17,731.79 712.04,715.12 L 719.75 707.50 L 719.25 713.59 C718.60,721.58 720.74,726.31 726.28,729.14 C731.28,731.70 736.10,731.13 744.94,726.95 C752.06,723.59 764.28,712.43 769.26,704.75 C770.95,702.14 772.46,700.13 772.62,700.29 C773.01,700.67 764.43,722.71 762.26,726.89 C760.81,729.69 759.19,730.78 753.00,733.15 C718.57,746.33 705.38,757.18 701.98,775.12 C700.11,784.98 704.66,793.23 713.50,796.00 ZM 310.00 543.73 C313.75,545.59 320.58,545.25 325.04,542.98 C333.91,538.46 338.01,531.56 384.52,443.00 C405.35,403.33 413.87,390.30 424.10,382.43 C429.06,378.60 430.00,377.39 430.00,374.77 C430.00,369.60 427.66,368.00 420.10,368.00 C413.07,368.01 409.36,369.55 403.64,374.85 C397.97,380.12 392.70,389.54 368.58,437.61 C334.87,504.78 325.71,522.24 326.40,518.00 C326.71,516.08 328.34,503.02 330.03,489.00 C333.34,461.39 338.52,420.44 340.02,410.00 C341.72,398.19 341.25,389.07 338.63,383.46 C333.00,371.35 318.50,365.73 302.50,369.44 C265.25,378.08 241.13,407.49 243.26,441.67 C243.68,448.46 244.41,451.39 246.95,456.56 C250.34,463.44 253.83,466.71 261.29,470.01 C264.93,471.62 266.43,471.84 267.99,471.01 C270.83,469.48 270.51,466.81 266.48,458.64 C257.09,439.63 260.92,413.89 275.45,398.25 C281.89,391.32 289.43,386.62 297.46,384.54 C305.00,382.59 308.35,382.60 312.52,384.58 C316.12,386.28 319.00,391.76 319.00,396.89 C319.00,398.46 316.54,417.54 313.54,439.29 C305.20,499.58 303.80,511.57 303.64,523.50 C303.48,535.78 305.24,541.36 310.00,543.73 ZM 633.23 741.89 C640.07,745.27 647.76,744.43 652.75,739.76 C656.46,736.29 655.70,732.95 650.47,729.64 C637.12,721.21 620.81,684.77 617.50,656.00 L 616.87 650.50 L 623.68 647.01 C656.77,630.08 690.00,596.30 690.00,579.59 C690.00,576.10 689.51,574.77 687.78,573.56 C682.96,570.18 675.11,572.66 673.06,578.20 C664.03,602.64 638.22,630.32 614.38,641.13 C610.75,642.77 607.56,643.90 607.29,643.63 C607.02,643.35 609.52,635.98 612.85,627.23 C625.47,594.07 626.12,584.77 616.33,577.30 C612.99,574.76 611.91,574.50 604.58,574.54 C594.12,574.58 585.91,576.81 573.24,583.04 C552.37,593.31 540.00,610.00 540.00,627.88 C540.00,637.20 544.98,644.84 552.17,646.54 C556.23,647.51 558.25,643.90 556.76,638.35 C554.31,629.26 560.45,615.56 572.20,603.87 C579.48,596.62 587.18,592.26 593.50,591.79 C597.43,591.50 597.51,591.56 597.80,595.10 C598.23,600.27 591.12,618.30 558.14,695.61 C552.01,709.96 547.00,722.68 547.00,723.86 C547.00,728.58 554.24,732.00 561.25,730.60 C567.42,729.37 569.15,726.36 582.59,693.42 L 595.41 661.99 L 598.68 676.03 C605.27,704.41 612.87,721.99 623.70,733.96 C626.59,737.16 630.88,740.72 633.23,741.89 ZM 360.00 308.42 L 337.50 324.99 L 323.55 324.99 C315.88,325.00 310.03,324.63 310.55,324.17 C311.07,323.71 325.45,313.05 342.50,300.48 C359.55,287.90 378.45,273.94 384.50,269.46 C488.78,192.21 508.26,178.03 509.30,178.63 C512.09,180.23 668.86,294.11 700.19,317.30 C704.41,320.42 708.15,323.44 708.50,323.99 C708.90,324.65 704.56,325.00 696.02,325.00 L 682.91 325.00 L 677.71 321.15 C672.04,316.97 630.57,287.01 614.50,275.50 C534.10,217.87 508.58,199.95 507.53,200.35 C506.43,200.77 475.08,223.55 447.50,243.97 C442.55,247.63 425.90,259.91 410.50,271.24 C395.10,282.58 372.38,299.31 360.00,308.42 ZM 592.80 521.60 C589.06,523.54 586.35,523.35 584.00,521.00 C581.45,518.45 581.25,507.91 583.60,499.93 C586.30,490.75 594.85,475.27 600.72,468.94 C607.39,461.73 611.39,459.18 617.29,458.37 C621.29,457.83 622.15,458.06 624.42,460.33 C626.00,461.91 627.00,464.03 627.00,465.80 C627.00,471.74 619.39,489.23 611.32,501.85 C607.09,508.46 596.63,519.62 592.80,521.60 ZM 426.68 712.94 C422.97,714.34 421.76,714.28 419.44,712.58 C417.79,711.37 417.50,709.92 417.50,702.83 C417.50,693.73 419.10,687.71 424.29,677.23 C428.44,668.87 436.53,658.39 441.66,654.74 C450.65,648.33 460.00,650.72 460.00,659.42 C460.00,674.00 438.53,708.50 426.68,712.94 ZM 547.41 446.00 C538.25,456.54 528.40,466.32 529.28,464.00 C544.22,424.49 560.94,392.45 569.98,386.02 C581.20,378.02 580.52,395.65 568.80,416.46 C562.59,427.48 558.05,433.75 547.41,446.00 ZM 479.26 449.50 C468.67,462.60 466.08,465.62 466.04,464.92 C465.91,462.80 485.17,419.30 492.12,406.00 C502.46,386.24 511.00,378.50 511.00,388.89 C511.00,400.90 497.12,427.41 479.26,449.50 ZM 725.81 781.10 C721.28,783.41 719.62,783.48 717.57,781.43 C711.67,775.53 722.64,759.27 738.39,750.56 C744.79,747.02 753.92,743.59 754.75,744.41 C755.28,744.95 749.68,755.14 745.15,761.86 C740.86,768.21 730.13,778.89 725.81,781.10 ZM 422.38 430.56 C426.41,432.32 426.74,432.30 431.54,430.12 C441.90,425.41 447.68,410.59 441.55,404.45 C433.58,396.49 416.04,408.90 416.01,422.53 C416.00,425.48 418.79,429.00 422.38,430.56 ZM 686.77 682.48 C682.90,684.41 679.08,686.00 678.28,686.00 C676.36,686.00 683.31,673.05 689.62,664.84 C700.61,650.57 711.01,649.00 707.05,662.22 C705.27,668.17 695.13,678.29 686.77,682.48 Z" fill="rgb(15,15,15)"/>
<path d="M 0.00 512.00 L 0.00 0.00 L 512.00 0.00 L 1024.00 0.00 L 1024.00 512.00 L 1024.00 1024.00 L 512.00 1024.00 L 0.00 1024.00 L 0.00 512.00 ZM 544.19 928.47 C587.08,924.87 621.07,917.41 661.40,902.75 C678.83,896.42 714.70,878.46 733.85,866.48 C805.46,821.67 866.32,751.76 899.16,676.58 C913.79,643.08 925.17,605.83 930.96,572.47 C939.90,521.00 938.71,470.74 927.34,419.50 C918.02,377.47 899.59,331.47 877.06,294.00 C849.31,247.83 807.78,202.89 762.50,170.02 C707.09,129.81 641.76,102.88 576.00,93.14 C550.55,89.38 538.97,88.76 503.50,89.26 C467.88,89.77 455.14,91.04 426.92,96.90 C376.14,107.44 328.52,126.24 286.05,152.52 C236.04,183.48 189.47,229.40 155.67,281.13 C108.49,353.31 84.39,440.72 88.96,523.11 C94.20,617.66 127.30,703.44 186.07,774.75 C198.75,790.14 223.91,816.16 237.50,827.95 C321.72,901.00 433.76,937.72 544.19,928.47 ZM 713.50 796.00 C704.66,793.23 700.11,784.98 701.98,775.12 C705.38,757.18 718.57,746.33 753.00,733.15 C759.19,730.78 760.81,729.69 762.26,726.89 C764.43,722.71 773.01,700.67 772.62,700.29 C772.46,700.13 770.95,702.14 769.26,704.75 C764.28,712.43 752.06,723.59 744.94,726.95 C736.10,731.13 731.28,731.70 726.28,729.14 C720.74,726.31 718.60,721.58 719.25,713.59 L 719.75 707.50 L 712.04 715.12 C695.17,731.79 675.92,736.49 661.77,727.39 C657.04,724.36 652.28,716.09 651.47,709.54 C648.86,688.20 668.41,654.22 689.14,644.08 C696.77,640.35 705.69,639.08 711.30,640.94 C715.90,642.45 720.54,647.73 721.42,652.44 C722.34,657.33 719.91,665.46 715.67,671.63 C709.22,681.04 693.37,691.25 678.75,695.42 L 673.00 697.06 L 673.00 702.13 C673.00,712.53 678.50,718.41 687.63,717.73 C696.06,717.11 703.32,712.81 714.03,702.06 L 723.57 692.50 L 729.96 677.50 C740.30,653.22 745.58,643.23 749.27,640.95 C753.93,638.07 759.68,638.66 762.38,642.29 C764.81,645.56 765.76,642.42 752.66,674.24 C741.30,701.83 739.29,708.14 740.80,711.45 C742.91,716.09 747.30,714.67 755.84,706.60 C765.87,697.13 774.17,683.93 784.49,661.00 C788.09,653.03 791.79,645.93 792.73,645.23 C795.29,643.32 801.95,641.77 804.66,642.45 C808.40,643.39 811.00,646.62 811.00,650.33 C811.00,652.16 805.83,667.27 799.50,683.91 C793.17,700.56 788.00,714.39 788.00,714.65 C788.00,714.90 790.81,713.63 794.24,711.81 C801.01,708.22 812.68,697.76 818.67,689.91 C822.57,684.79 824.62,683.85 825.70,686.67 C826.77,689.46 821.10,698.73 813.15,707.18 C804.94,715.91 796.62,722.27 787.75,726.60 C782.87,728.99 781.76,730.05 780.38,733.68 C777.66,740.79 766.58,760.24 760.76,768.10 C745.75,788.38 726.14,799.95 713.50,796.00 ZM 725.81 781.10 C730.13,778.89 740.86,768.21 745.15,761.86 C749.68,755.14 755.28,744.95 754.75,744.41 C753.92,743.59 744.79,747.02 738.39,750.56 C722.64,759.27 711.67,775.53 717.57,781.43 C719.62,783.48 721.28,783.41 725.81,781.10 ZM 686.77 682.48 C695.13,678.29 705.27,668.17 707.05,662.22 C711.01,649.00 700.61,650.57 689.62,664.84 C683.31,673.05 676.36,686.00 678.28,686.00 C679.08,686.00 682.90,684.41 686.77,682.48 ZM 633.23 741.89 C630.88,740.72 626.59,737.16 623.70,733.96 C612.87,721.99 605.27,704.41 598.68,676.03 L 595.41 661.99 L 582.59 693.42 C569.15,726.36 567.42,729.37 561.25,730.60 C554.24,732.00 547.00,728.58 547.00,723.86 C547.00,722.68 552.01,709.96 558.14,695.61 C591.12,618.30 598.23,600.27 597.80,595.10 C597.51,591.56 597.43,591.50 593.50,591.79 C587.18,592.26 579.48,596.62 572.20,603.87 C560.45,615.56 554.31,629.26 556.76,638.35 C558.25,643.90 556.23,647.51 552.17,646.54 C544.98,644.84 540.00,637.20 540.00,627.88 C540.00,610.00 552.37,593.31 573.24,583.04 C585.91,576.81 594.12,574.58 604.58,574.54 C611.91,574.50 612.99,574.76 616.33,577.30 C626.12,584.77 625.47,594.07 612.85,627.23 C609.52,635.98 607.02,643.35 607.29,643.63 C607.56,643.90 610.75,642.77 614.38,641.13 C638.22,630.32 664.03,602.64 673.06,578.20 C675.11,572.66 682.96,570.18 687.78,573.56 C689.51,574.77 690.00,576.10 690.00,579.59 C690.00,596.30 656.77,630.08 623.68,647.01 L 616.87 650.50 L 617.50 656.00 C620.81,684.77 637.12,721.21 650.47,729.64 C655.70,732.95 656.46,736.29 652.75,739.76 C647.76,744.43 640.07,745.27 633.23,741.89 ZM 348.42 730.64 C340.86,727.20 338.21,719.68 339.85,706.36 C341.43,693.46 345.69,681.34 362.31,642.50 C378.68,604.22 382.05,594.62 379.86,592.43 C372.79,585.37 339.29,618.85 316.07,656.16 C308.06,669.04 294.95,694.38 287.45,711.50 C281.39,725.34 280.06,727.40 275.80,729.60 C268.43,733.42 257.00,728.58 257.00,721.64 C257.00,720.94 259.31,715.22 262.12,708.93 C269.57,692.32 283.29,657.32 290.71,636.00 C302.01,603.55 304.10,592.81 300.08,587.86 C298.41,585.80 297.39,585.52 292.04,585.68 C274.28,586.18 251.59,606.59 244.91,628.06 C242.25,636.58 242.42,641.87 245.50,646.40 C248.76,651.22 248.69,654.31 245.25,657.02 C239.86,661.26 230.08,656.86 225.87,648.32 C222.62,641.71 222.68,628.34 226.00,619.50 C234.23,597.66 256.49,579.87 282.21,574.58 C290.85,572.81 305.75,572.49 310.92,573.98 C316.44,575.56 321.77,579.89 324.08,584.67 C325.94,588.50 326.17,590.34 325.76,597.81 C325.34,605.41 324.44,608.76 318.64,624.45 C314.99,634.32 312.00,642.63 312.00,642.93 C312.00,643.23 313.79,640.40 315.99,636.65 C327.38,617.16 343.98,597.45 357.97,586.81 C361.53,584.10 367.73,580.26 371.75,578.28 C380.88,573.77 392.17,572.65 397.93,575.69 C403.92,578.86 405.52,582.09 405.38,590.83 C405.24,600.67 402.27,609.11 384.25,651.00 C369.63,685.00 363.01,702.65 363.00,707.68 C362.98,723.90 389.55,706.03 399.69,683.00 C411.84,655.40 427.59,640.55 446.10,639.22 C451.17,638.86 454.20,639.19 457.47,640.44 C462.11,642.21 467.00,646.98 467.00,649.74 C467.00,650.76 468.18,649.98 470.25,647.60 C472.72,644.75 474.48,643.73 477.59,643.32 C481.18,642.84 481.94,643.11 483.84,645.52 C485.03,647.03 486.00,649.43 486.00,650.85 C486.00,652.26 482.91,659.96 479.13,667.96 C462.47,703.20 460.55,714.00 470.95,714.00 C477.12,714.00 493.05,701.60 500.16,691.26 C503.32,686.68 506.00,685.69 506.00,689.11 C506.00,692.40 500.43,702.05 494.37,709.26 C471.98,735.90 445.56,737.02 447.20,711.27 L 447.61 704.82 L 445.59 707.66 C440.39,714.98 430.34,724.20 424.33,727.16 C409.73,734.35 397.75,727.42 396.26,710.91 L 395.73 705.07 L 392.41 709.41 C387.55,715.78 377.35,724.53 370.59,728.14 C363.60,731.86 353.58,733.00 348.42,730.64 ZM 426.68 712.94 C438.53,708.50 460.00,674.00 460.00,659.42 C460.00,650.72 450.65,648.33 441.66,654.74 C436.53,658.39 428.44,668.87 424.29,677.23 C419.10,687.71 417.50,693.73 417.50,702.83 C417.50,709.92 417.79,711.37 419.44,712.58 C421.76,714.28 422.97,714.34 426.68,712.94 ZM 310.00 543.73 C305.24,541.36 303.48,535.78 303.64,523.50 C303.80,511.57 305.20,499.58 313.54,439.29 C316.54,417.54 319.00,398.46 319.00,396.89 C319.00,391.76 316.12,386.28 312.52,384.58 C308.35,382.60 305.00,382.59 297.46,384.54 C289.43,386.62 281.89,391.32 275.45,398.25 C260.92,413.89 257.09,439.63 266.48,458.64 C270.51,466.81 270.83,469.48 267.99,471.01 C266.43,471.84 264.93,471.62 261.29,470.01 C253.83,466.71 250.34,463.44 246.95,456.56 C244.41,451.39 243.68,448.46 243.26,441.67 C241.13,407.49 265.25,378.08 302.50,369.44 C318.50,365.73 333.00,371.35 338.63,383.46 C341.25,389.07 341.72,398.19 340.02,410.00 C338.52,420.44 333.34,461.39 330.03,489.00 C328.34,503.02 326.71,516.08 326.40,518.00 C325.71,522.24 334.87,504.78 368.58,437.61 C392.70,389.54 397.97,380.12 403.64,374.85 C409.36,369.55 413.07,368.01 420.10,368.00 C427.66,368.00 430.00,369.60 430.00,374.77 C430.00,377.39 429.06,378.60 424.10,382.43 C413.87,390.30 405.35,403.33 384.52,443.00 C338.01,531.56 333.91,538.46 325.04,542.98 C320.58,545.25 313.75,545.59 310.00,543.73 ZM 513.65 540.89 C503.88,538.60 499.89,531.82 499.20,516.35 L 498.74 506.05 L 495.62 510.76 C491.21,517.42 478.34,530.17 471.93,534.24 C464.83,538.74 460.91,540.00 454.10,539.98 C443.01,539.95 436.37,532.89 435.09,519.75 L 434.50 513.74 L 430.60 519.41 C422.25,531.55 409.38,540.00 399.22,540.00 C379.19,540.00 377.86,522.52 394.44,477.00 C404.45,449.50 406.66,446.00 414.05,446.00 C417.07,446.00 418.36,446.64 420.52,449.20 C424.31,453.71 423.81,456.24 413.51,484.50 C406.56,503.56 404.73,509.70 404.63,514.33 C404.42,523.74 408.63,525.02 417.24,518.17 C422.26,514.17 432.15,502.54 434.67,497.67 C435.54,495.99 439.29,485.59 443.02,474.56 C451.68,448.88 458.40,432.03 466.96,414.50 C478.05,391.77 486.64,379.93 497.46,372.48 C501.88,369.44 503.96,368.69 509.20,368.27 C514.98,367.81 515.84,368.00 518.65,370.36 C523.16,374.15 524.34,377.85 523.76,386.27 C522.22,408.38 501.29,442.38 469.25,474.82 C463.61,480.53 459.00,485.37 459.00,485.57 C459.00,485.78 457.88,490.34 456.51,495.72 C453.57,507.27 453.34,514.20 455.75,518.95 C459.74,526.82 468.41,524.15 482.70,510.67 C493.05,500.89 502.53,488.48 504.06,482.70 C510.90,456.88 524.98,421.45 535.74,403.00 C548.67,380.84 560.40,370.99 573.88,371.00 C587.82,371.02 592.82,384.46 586.07,403.84 C579.59,422.47 566.47,440.76 542.23,465.00 C532.60,474.62 524.10,483.96 523.35,485.75 C521.27,490.65 519.00,502.47 519.01,508.32 C519.01,516.89 520.60,520.94 524.61,522.61 C527.74,523.92 528.48,523.88 532.29,522.20 C542.43,517.71 560.89,498.22 567.51,485.00 C575.94,468.18 587.20,455.49 598.72,449.82 C604.04,447.20 606.95,446.44 612.85,446.14 C616.94,445.94 621.98,446.28 624.05,446.90 C627.46,447.92 632.81,452.71 634.38,456.15 C634.88,457.24 635.13,457.22 635.66,456.01 C638.75,449.08 647.97,446.60 651.93,451.63 C653.07,453.08 654.00,454.98 654.00,455.85 C654.00,456.71 650.89,463.96 647.09,471.96 C637.61,491.91 632.14,505.98 631.39,512.37 C630.84,517.02 631.04,518.04 632.88,519.88 C634.15,521.15 636.27,522.00 638.16,522.00 C644.39,522.00 657.36,512.47 666.28,501.33 C674.02,491.68 676.66,493.23 670.89,504.06 C666.92,511.50 657.61,522.57 650.24,528.60 C630.85,544.48 613.02,540.18 614.17,519.91 C614.35,516.66 614.28,514.02 614.00,514.05 C613.72,514.07 611.70,516.61 609.50,519.68 C600.48,532.26 588.58,539.74 579.23,538.71 C569.31,537.62 562.29,528.54 561.24,515.46 L 560.74 509.14 L 556.54 514.82 C550.20,523.41 537.76,534.52 530.68,537.89 C523.44,541.35 518.96,542.14 513.65,540.89 ZM 592.80 521.60 C596.63,519.62 607.09,508.46 611.32,501.85 C619.39,489.23 627.00,471.74 627.00,465.80 C627.00,464.03 626.00,461.91 624.42,460.33 C622.15,458.06 621.29,457.83 617.29,458.37 C611.39,459.18 607.39,461.73 600.72,468.94 C594.85,475.27 586.30,490.75 583.60,499.93 C581.25,507.91 581.45,518.45 584.00,521.00 C586.35,523.35 589.06,523.54 592.80,521.60 ZM 479.26 449.50 C497.12,427.41 511.00,400.90 511.00,388.89 C511.00,378.50 502.46,386.24 492.12,406.00 C485.17,419.30 465.91,462.80 466.04,464.92 C466.08,465.62 468.67,462.60 479.26,449.50 ZM 547.41 446.00 C558.05,433.75 562.59,427.48 568.80,416.46 C580.52,395.65 581.20,378.02 569.98,386.02 C560.94,392.45 544.22,424.49 529.28,464.00 C528.40,466.32 538.25,456.54 547.41,446.00 ZM 422.38 430.56 C418.79,429.00 416.00,425.48 416.01,422.53 C416.04,408.90 433.58,396.49 441.55,404.45 C447.68,410.59 441.90,425.41 431.54,430.12 C426.74,432.30 426.41,432.32 422.38,430.56 ZM 670.29 331.66 C666.00,328.72 651.40,318.26 637.83,308.41 C624.26,298.56 605.59,285.06 596.33,278.40 C587.07,271.75 564.02,255.17 545.11,241.57 C526.20,227.96 510.22,216.64 509.61,216.41 C508.16,215.87 507.14,216.56 479.96,236.50 C467.21,245.85 452.45,256.68 447.14,260.57 C441.84,264.45 429.40,273.57 419.50,280.83 C409.60,288.09 393.85,299.61 384.50,306.43 C375.15,313.25 362.33,322.68 356.00,327.39 L 344.50 335.94 L 298.55 335.97 C273.28,335.99 253.03,335.62 253.55,335.15 C254.38,334.41 346.02,266.09 376.50,243.49 C433.65,201.11 499.88,152.41 504.05,149.69 C505.45,148.78 508.15,147.93 510.05,147.80 C513.10,147.60 516.24,149.60 537.00,164.97 C549.92,174.53 572.20,190.89 586.50,201.32 C600.80,211.75 617.45,223.95 623.50,228.43 C629.55,232.91 641.19,241.51 649.37,247.54 C657.55,253.57 687.03,275.50 714.87,296.29 C742.72,317.07 766.40,334.71 767.50,335.48 C769.23,336.71 763.44,336.90 723.79,336.95 L 678.08 337.00 L 670.29 331.66 ZM 360.00 308.42 C372.38,299.31 395.10,282.58 410.50,271.24 C425.90,259.91 442.55,247.63 447.50,243.97 C475.08,223.55 506.43,200.77 507.53,200.35 C508.58,199.95 534.10,217.87 614.50,275.50 C630.57,287.01 672.04,316.97 677.71,321.15 L 682.91 325.00 L 696.02 325.00 C704.56,325.00 708.90,324.65 708.50,323.99 C708.15,323.44 704.41,320.42 700.19,317.30 C668.86,294.11 512.09,180.23 509.30,178.63 C508.26,178.03 488.78,192.21 384.50,269.46 C378.45,273.94 359.55,287.90 342.50,300.48 C325.45,313.05 311.07,323.71 310.55,324.17 C310.03,324.63 315.88,325.00 323.55,324.99 L 337.50 324.99 L 360.00 308.42 Z" fill="rgb(254,254,254)"/>
</g>
</svg>