<svg xmlns="http://www.w3.org/2000/svg" width="131" height="133" viewBox="0 0 131 133">
<g>
<path d="M 110.50 127.20 C105.59,129.46 104.82,129.50 67.50,129.71 C27.54,129.93 26.33,129.83 17.50,125.26 C12.64,122.75 9.97,119.93 6.86,114.00 L 4.50 109.50 L 4.50 23.50 L 6.86 19.00 C10.07,12.88 12.67,10.23 18.14,7.44 C25.40,3.74 33.28,3.02 66.00,3.02 C106.76,3.02 112.66,4.11 120.34,13.08 C127.00,20.87 127.25,22.49 127.75,61.58 C128.23,98.53 127.57,108.03 124.07,114.83 C121.46,119.89 116.44,124.47 110.50,127.20 ZM 30.08 103.92 L 33.15 107.00 L 72.00 107.00 L 72.00 95.13 C72.00,82.19 70.79,77.04 66.42,71.31 C62.60,66.30 57.27,64.00 49.50,64.00 C39.48,64.00 35.04,66.70 29.64,76.09 C27.26,80.22 27.00,81.69 27.00,90.76 C27.00,100.69 27.05,100.89 30.08,103.92 ZM 79.64 103.25 L 80.26 107.00 L 89.68 107.00 C101.20,107.00 104.45,105.65 105.95,100.25 C109.79,86.41 103.60,73.11 92.55,71.46 C89.87,71.05 85.16,71.12 82.09,71.61 C79.23,72.07 77.74,72.28 77.15,73.12 C76.51,74.03 76.94,75.68 77.84,79.17 C77.87,79.28 77.89,79.39 77.92,79.50 C78.49,81.70 78.97,87.10 78.99,91.50 C79.01,95.90 79.30,101.19 79.64,103.25 ZM 42.50 54.14 C51.25,59.55 62.27,53.34 62.27,43.00 C62.27,35.22 56.94,30.00 49.00,30.00 C43.14,30.00 39.55,32.24 37.02,37.46 C33.66,44.41 35.42,49.76 42.50,54.14 ZM 80.32 61.48 C85.13,64.36 87.93,64.61 91.96,62.52 C98.54,59.12 100.91,51.59 97.48,44.97 C93.70,37.66 82.28,37.08 77.20,43.94 C72.34,50.51 73.58,57.43 80.32,61.48 Z" fill="rgb(4,60,104)"/>
<path d="M 0.00 0.00 L 131.00 0.00 L 131.00 133.00 L 0.00 133.00 ZM 110.50 127.20 C116.44,124.47 121.46,119.89 124.07,114.83 C127.57,108.03 128.23,98.53 127.75,61.58 C127.25,22.49 127.00,20.87 120.34,13.08 C112.66,4.11 106.76,3.02 66.00,3.02 C33.28,3.02 25.40,3.74 18.14,7.44 C12.67,10.23 10.07,12.88 6.86,19.00 L 4.50 23.50 L 4.50 109.50 L 6.86 114.00 C9.97,119.93 12.64,122.75 17.50,125.26 C26.33,129.83 27.54,129.93 67.50,129.71 C104.82,129.50 105.59,129.46 110.50,127.20 Z" fill="rgb(251,253,253)"/>
<path d="M 30.08 103.92 C27.05,100.89 27.00,100.69 27.00,90.76 C27.00,81.69 27.26,80.22 29.64,76.09 C35.04,66.70 39.48,64.00 49.50,64.00 C57.27,64.00 62.60,66.30 66.42,71.31 C70.79,77.04 72.00,82.19 72.00,95.13 L 72.00 107.00 L 52.58 107.00 L 33.15 107.00 L 30.08 103.92 ZM 79.64 103.25 C79.30,101.19 79.01,95.90 78.99,91.50 C78.97,87.10 78.49,81.70 77.92,79.50 C76.11,72.44 76.04,72.57 82.09,71.61 C85.16,71.12 89.87,71.05 92.55,71.46 C103.60,73.11 109.79,86.41 105.95,100.25 C104.45,105.65 101.20,107.00 89.68,107.00 L 80.26 107.00 L 79.64 103.25 ZM 80.32 61.48 C73.58,57.43 72.34,50.51 77.20,43.94 C82.28,37.08 93.70,37.66 97.48,44.97 C100.91,51.59 98.54,59.12 91.96,62.52 C87.93,64.61 85.13,64.36 80.32,61.48 ZM 42.50 54.14 C35.42,49.76 33.66,44.41 37.02,37.46 C39.55,32.24 43.14,30.00 49.00,30.00 C56.94,30.00 62.27,35.22 62.27,43.00 C62.27,53.34 51.25,59.55 42.50,54.14 Z" fill="rgb(247,109,57)"/>
</g>
</svg>